/* XPM */
static char *result[] = {
/* columns rows colors chars-per-pixel */
"32 32 25 1 ",
"  c #251D1D",
". c #2A2926",
"X c #282828",
"o c #2F2E2B",
"O c #353330",
"+ c #3F3E3A",
"@ c #3C3C3C",
"# c #703E3F",
"$ c #494742",
"% c #55524C",
"& c #505050",
"* c #636059",
"= c #646464",
"- c #990000",
"; c #B83E40",
": c #FD5356",
"> c #8B877E",
", c #8D8D8D",
"< c #9A978F",
"1 c #A0A0A0",
"2 c #C0C0C0",
"3 c #CBCAC5",
"4 c #C8C8C8",
"5 c #F1F0EF",
"6 c None",
/* pixels */
"66666666666X@@@@@@@@X66666666666",
"6666666@@@X.$$$$$$$$.X@@@6666666",
"666666@>>$$<********<$$>>@666666",
"66666@>****<********<****>@66666",
"6666@=<****<********<****<=@6666",
"6666@4<****<*------*<****<4@6666",
"6666@=<****<**<<<<**<****<=@6666",
"6666@&<****<**;::;**<****<&@6666",
"6666X@<**@*3********3*@**<@X6666",
"66666X<**@*533<<<<335*@**<X66666",
"66666@3**3*<=&====&=<*3**3@66666",
"66666@53<<3=,,,,,,,,=3<<35@66666",
"66666@3****&........&****3@66666",
"66666@<*@&&=oooooooo=&&@*<@66666",
"66666@<*@,,,O&O%%O&O,,,@*<@66666",
"66666@3<.....&@@@@&.....<3@66666",
"666666@*%OOoOOO%%OOOoOO%*@666666",
"666666@*%....&@@@@&....%*@666666",
"666666@*%++OOOO%%OOOO++%*@666666",
"666666@*%....&@@@@&....%*@666666",
"666666@*%++OOOO%%OOOO++%*@666666",
"666666@*%++..&@@@@&..++%*@666666",
"666666@*%+.,11111111,.+%*@666666",
"666666X*,11=,,,,,,,,=11,*X666666",
"6666@X+*=,,53<<<<<<35,,=*+X@6666",
"666@*<+*=,,3********3,,=*+<*@666",
"66@*2*3<<<<<*++++++*<<<<<3***@66",
"66X+22<****<*#;::;#*<****<22+X66",
"666X+2<****<* #;;# *<****<2+X666",
"6666X+*++++<*<<<<<<*<++++*+X6666",
"66666X@XXXX*++++++++*XXXX@X66666",
"66666666666@XXXXXXXX@66666666666"
};
