/* XPM */
static char *result[] = {
/* columns rows colors chars-per-pixel */
"32 32 22 1 ",
"  c #2E2623",
". c #3D3634",
"X c #343239",
"o c #006600",
"O c #0A235C",
"+ c #1D4C7F",
"@ c #4D4A4A",
"# c #58565C",
"$ c #676362",
"% c #6F7278",
"& c #008A00",
"* c #A28F33",
"= c #C7B34F",
"- c #1F5FA9",
"; c #3174C5",
": c #00B7D5",
"> c #3692E5",
", c #4FD4F0",
"< c #96918E",
"1 c #E5DCAD",
"2 c #8CC9F1",
"3 c None",
/* pixels */
"33333333333333333333333333333333",
"33333333333333333333333333333333",
"33333333333333333333333333333333",
"33333333333333333333333333333333",
"33333333333333333333333333333333",
"33333333333333333333333333333333",
"33333333333333333333333333333333",
"33333333333333333333333333333333",
"33333333333333333333333333333333",
"33333333333333333333333333333333",
"33333333333333333333333333333333",
"3333333333333333#%%%#33333333333",
"333333333333333#X###X#3333333333",
"33333333333333#X33333X#333333333",
"3333333333333#X3+++++3X#33333333",
"3333333333333X++22222++X33333333",
"333333333333#X>2;;;;;2>X#3333333",
"333333333333X+2;::,::;2+X3333333",
"333333333...X+2;,::::;2+X3333333",
"33333333.$<$X+>2:::,:2>+X3333333",
"3333333.@ .  O;>22222>;O33333333",
"3333333@<.333O;;>;;;>;;O33333333",
"3333333@$.333O;;-o&o-;;O33333333",
"333333*.<. =3O-;-&&&-;-O33333333",
"33333*=.$@.1=3O;-o&o-;O333333333",
"33333*=*..*1=XO-;---;-OX33333333",
"33333*=1=1=1=X%O-;;;-O%X33333333",
"333333*1=1==3X##OOOOO##X33333333",
"3333333=*=*333XX33333XX333333333",
"33333333333333333333333333333333",
"33333333333333333333333333333333",
"33333333333333333333333333333333"
};
