/* XPM */
static char *result[] = {
/* columns rows colors chars-per-pixel */
"32 32 49 1 ",
"  c #3F1F07",
". c #331E0A",
"X c #3F2008",
"o c #3F220A",
"O c #332819",
"+ c #372B1D",
"@ c #3C3429",
"# c #3E362B",
"$ c #401F07",
"% c #421F07",
"& c #421F08",
"* c #412007",
"= c #422007",
"- c #402008",
"; c #412008",
": c #412108",
"> c #422008",
", c #432008",
"< c #422108",
"1 c #432108",
"2 c #412209",
"3 c #422208",
"4 c #432208",
"5 c #422209",
"6 c #41220A",
"7 c #41230B",
"8 c #42230A",
"9 c #42230B",
"0 c #40372A",
"q c #40372E",
"w c #40392D",
"e c #40382E",
"r c #40392E",
"t c #403A2F",
"y c #413930",
"u c #403A30",
"i c #413A30",
"p c #413B30",
"a c #413B31",
"s c #413B32",
"d c #413C32",
"f c #413C33",
"g c #423C32",
"h c #473E33",
"j c #4B463B",
"k c #4C443B",
"l c #4C453B",
"z c #4B463C",
"x c None",
/* pixels */
"xxxxxxxxxxxxxxxxxxxxxxxxxxxxxxxx",
"xxxxxxxxxxxxxxxxxxxxxxxxxxxxxxxx",
"xxxxxxxxxxxxxxxxxxxxxxxxxxxxxxxx",
"xxxxxxxxxxxxxxxxxxxxxxxxxxxxxxxx",
"xxxxxxxxxxxxxxxxxxxxxxxxxxxxxxxx",
"xxxxxxxxxxxxxxxxxxxxxxxxxxxxxxxx",
"xxxxxxxxxxxxxxxxxxxxxxxxxxxxxxxx",
"xxxxxxxxxxxxxxxxxxxxxxxxxxxxxxxx",
"xxxxxxxxxxxxxxxxxxxxxxxxxxxxxxxx",
"xxxxxxxxxxxxxxxxxxxxxxxxxxxxxxxx",
"xxxxxxxxxxxxxxxxxxxxxxxxxxxxxxxx",
"xxxxxxxxxxxxxxxxxxxxxxxxxxxxxxxx",
"xxxxxxxxxxxxxxxxxxxxxxxxxxxxxxxx",
"xxxxxxxxxxxqx&>xxxxa:xxsxxxxxxxx",
"xxxxxxxxxxx.xxy,xxx4xxxxxxxxxxxx",
"xxxxxxxxxx$ ex%x>1x5xxxxx>xxxxxx",
"xxxxxxxgxxxiexxxx<xxxxxxxxxxxxxx",
"xxxxxxxxxxxxrxxxxxxxxxxxxxx-xxxx",
"xxxxxxxxxxxxxxxklxxxxxxfxxx0xxxx",
"xxxxxxxxxxxxxxxx=xxxxxxx5xxxxxxx",
"xxxxxxxxxxxxxxxxxxxxxxx66xxxxxxx",
"xxxxx2xxxxxxxxx+hxxxxxxxxxxxxxxx",
"xxxxx2xxxxxxxxxxxxxz4xxx23xxxxxx",
"xxxxxoxxxX$xxxxxxx97gxxxx##rxxxx",
"xxxxu@ixxX;xxxxxxx8xxxxxt#O;xxxx",
"xxxxjwxxx<xxxxxxxxxxxxxxxxxxxxxx",
"xxxxdxxxxxxxxx;xxxxxxxxxxpxxxxxx",
"xxxxxxxxxxxxxxxxxxxxxxxxxxxxxxxx",
"xxxxxxxxxxxxxxxxxxx*xxxxxxxxxxxx",
"xxxxxxxxxxxxxxxxxxxxxxxxxxxxxxxx",
"xxxxxxxxxxxxxxxxxxxxxxxxxxxxxxxx",
"xxxxxxxxxxxxxxxxxxxxxxxxxxxxxxxx"
};
