/* XPM */
static char *result[] = {
/* columns rows colors chars-per-pixel */
"32 32 6 1 ",
"  c #7C828A",
". c #656A70",
"X c #45494D",
"o c #71777E",
"O c #70757C",
"+ c #747A81",
/* pixels */
"               .               X",
" oooooooooooooOX oooooooooooooOX",
" o+++++++++++oOX o+++++++++++oOX",
" o+++++++++++oOX o+++++++++++oOX",
" o+++++++++++oOX o+++++++++++oOX",
" o+++++++++++oOX o+++++++++++oOX",
" o+++++++++++oOX o+++++++++++oOX",
" o+++++++++++oOX o+++++++++++oOX",
" o+++++++++++oOX o+++++++++++oOX",
" o+++++++++++oOX o+++++++++++oOX",
" o+++++++++++oOX o+++++++++++oOX",
" o+++++++++++oOX o+++++++++++oOX",
" o+++++++++++ooX o+++++++++++ooX",
" ooooooooooooooX ooooooooooooooX",
"ooOOOOOOOOOOOOOXooOOOOOOOOOOOOOX",
"XXXXXXXXXXXXXXXXXXXXXXXXXXXXXXXX",
"               X               X",
" oooooooooooooOX oooooooooooooOX",
" o+++++++++++oOX o+++++++++++oOX",
" o+++++++++++oOX o+++++++++++oOX",
" o+++++++++++oOX o+++++++++++oOX",
" o+++++++++++oOX o+++++++++++oOX",
" o+++++++++++oOX o+++++++++++oOX",
" o+++++++++++oOX o+++++++++++oOX",
" o+++++++++++oOX o+++++++++++oOX",
" o+++++++++++oOX o+++++++++++oOX",
" o+++++++++++oOX o+++++++++++oOX",
" o+++++++++++oOX o+++++++++++oOX",
" o+++++++++++ooX o+++++++++++ooX",
" ooooooooooooooX ooooooooooooooX",
"ooOOOOOOOOOOOOOXooOOOOOOOOOOOOOX",
"XXXXXXXXXXXXXXXXXXXXXXXXXXXXXXXX"
};
