/* XPM */
static char *result[] = {
/* columns rows colors chars-per-pixel */
"32 32 22 1 ",
"  c black",
". c #0E1012",
"X c #14171A",
"o c #350709",
"O c #1D2125",
"+ c #1E2226",
"@ c #252A2F",
"# c #2B3035",
"$ c #2B3137",
"% c #31373D",
"& c #32383E",
"* c #450003",
"= c #5C0C12",
"- c #394047",
"; c #3F474F",
": c #464F58",
"> c #5A6570",
", c #910003",
"< c #AA1318",
"1 c #B53F46",
"2 c #7F8A95",
"3 c None",
/* pixels */
"33333333333333333333333333333333",
"33333333333333333333333333333333",
"33333333333333,,,,,3333333333333",
"333333333333<,,,,,,,<33333333333",
"33333333333,,<:::::<,,3333333333",
"3333333333=,,:     :,,=333333333",
"3333,,,333==:  :::  :==333,,,333",
"333,1<1,3#             #3,1<1,33",
"33,< 2###:=&&:::::::&&=:###2 <,3",
"33,<::::::   &&&&&&&   ::::::<,3",
"33*<o###::&&&:&&:&&:&&&::###o<*3",
"333 <<<o3@   &&&&&&&   @3o<<< 33",
"3333 oo3@@  >       >  @@3oo 333",
"33333333@#   OOOXOOO   #@3333333",
"3333333#@2; $$++%++$$ ;2@#333333",
"3333333#@2; $.OO#OO.$ ;2@#333333",
"3333333#@2;   %%%%%   ;2@#333333",
"33333333@2; 33     33 ;2@3333333",
"33333333@2; 333333333 ;2@3333333",
"3333333#@2; 333333333 ;2@#333333",
"3333333# 2; 333333333 ;2 #333333",
"3333333#>;; 333333333 ;;>#333333",
"3333333#>;# 333333333 #;>#333333",
"333333#>:;# 333333333 #;:>#33333",
"333333#>:;# 333333333 #;:>#33333",
"333333#>-# 33333333333 #->#33333",
"3333333#;#3333333333333#;#333333",
"33333######33333333333######3333",
"3333#>#:--##333333333##--:#>#333",
"333#>::#--#:#3333333#:#--#::>#33",
"33#>:---##:;:#33333#:;:##---:>#3",
"33## ###  ####33333####  ### ##3"
};
