/* XPM */
static char *result[] = {
/* columns rows colors chars-per-pixel */
"32 32 19 1 ",
"  c black",
". c #14171A",
"X c #350709",
"o c #262B30",
"O c #2B3035",
"+ c #32383E",
"@ c #450003",
"# c #5C0C12",
"$ c #394047",
"% c #3F474F",
"& c #464F58",
"* c #5A6570",
"= c #910003",
"- c #AA1318",
"; c #B02A30",
": c #B53F46",
"> c #717D89",
", c #97A0A9",
"< c None",
/* pixels */
"<<<<<<<<<<<<<<<<<<<<<<<<<<<<<<<<",
"<<<<<<<<<<<<<<<<<<<<<<<<<<<<<<<<",
"<<<<<<<<<<<<<<=====<<<<<<<<<<<<<",
"<<<<<<<<<<<<-=======-<<<<<<<<<<<",
"<<<<<<<<<<<==-=====-==<<<<<<<<<<",
"<<<<<<<<<<#===;;;;;===#<<<<<<<<<",
"<<<<===<<<##=-------=##<<<===<<<",
"<<<=:-:=<O>           >O<=:-:=<<",
"<<=- - -O&& &&&&&&&&& &&O- - -=<",
"<<=-:-:- &>&&+     +&&>& -:-:-=<",
"<<@- - - && &       & && - - -@<",
"<<< ---X<O&&>>>>>>>>>&&O<X--- <<",
"<<<< XX<<< &*********& <<<XX <<<",
"<<<<<<<<OO%%%OOOOOOO%%%OO<<<<<<<",
"<<<<<<<O,,%O%%%%&%%%%O%,,O<<<<<<",
"<<<<<<<O&%%O%.OOOOO.%O%%&O<<<<<<",
"<<<<<<<O&%%O  &&&&&  O%%&O<<<<<<",
"<<<<<<<<O% <<<     <<< %O<<<<<<<",
"<<<<<<<<O% <<<<<<<<<<< %O<<<<<<<",
"<<<<<<<O&%$ <<<<<<<<< $%&O<<<<<<",
"<<<<<<<O&%o <<<<<<<<< o%&O<<<<<<",
"<<<<<<<O*%O <<<<<<<<< O%*O<<<<<<",
"<<<<<<<O*%O <<<<<<<<< O%*O<<<<<<",
"<<<<<<O*&%O <<<<<<<<< O%&*O<<<<<",
"<<<<<<O*&%O <<<<<<<<< O%&*O<<<<<",
"<<<<<<O*$O <<<<<<<<<<< O$*O<<<<<",
"<<<<<<<O%O<<<<<<<<<<<<<O%O<<<<<<",
"<<<<<OOOOOO<<<<<<<<<<<OOOOOO<<<<",
"<<<<O*,,OOOO<<<<<<<<<OOOO,,*O<<<",
"<<<O*,,&OOO&O<<<<<<<O&OOO&,,*O<<",
"<<O*&&&&OO&%&O<<<<<O&%&OO&&&&*O<",
"<<OO OOOO OOOO<<<<<OOOO OOOO OO<"
};
