/* XPM */
static char *result[] = {
/* columns rows colors chars-per-pixel */
"32 32 176 2 ",
"   c black",
".  c #010100",
"X  c #060101",
"o  c #0B0203",
"O  c #090304",
"+  c #0B0C0D",
"@  c #0E1012",
"#  c #111315",
"$  c #14171A",
"%  c #15181B",
"&  c #15191C",
"*  c #1A1D20",
"=  c #1B1E21",
"-  c #1A1F23",
";  c #1B1F23",
":  c #1C2024",
">  c #1D2125",
",  c #1E2226",
"<  c #1F2327",
"1  c #1F2428",
"2  c #202428",
"3  c #212529",
"4  c #22262A",
"5  c #23272B",
"6  c #22272D",
"7  c #23282D",
"8  c #24282C",
"9  c #24292E",
"0  c #252A2F",
"q  c #262B30",
"w  c #282D32",
"e  c #292E33",
"r  c #2F2D33",
"t  c #2A2F34",
"y  c #2C2F34",
"u  c #2B3035",
"i  c #2A3036",
"p  c #2D3034",
"a  c #2C3035",
"s  c #2C3238",
"d  c #2C3339",
"f  c #2D3339",
"g  c #2E343A",
"h  c #2F343A",
"j  c #2F353B",
"k  c #30353B",
"l  c #30363C",
"z  c #31373D",
"x  c #32383E",
"c  c #33393F",
"v  c #5C0C12",
"b  c #5C0D12",
"n  c #5C0D13",
"m  c #5A0E15",
"M  c #5D1018",
"N  c #5E1019",
"B  c #700003",
"V  c #760003",
"C  c #790105",
"Z  c #7A0104",
"A  c #690E15",
"S  c #6D0E15",
"D  c #621017",
"F  c #323940",
"G  c #323A41",
"H  c #333A41",
"J  c #363A41",
"K  c #343B42",
"L  c #353C43",
"P  c #363D44",
"I  c #373E45",
"U  c #383F46",
"Y  c #394047",
"T  c #3A4148",
"R  c #3A424A",
"E  c #3B434B",
"W  c #3C444C",
"Q  c #3D454D",
"!  c #3E464E",
"~  c #404850",
"^  c #424A52",
"/  c #434C55",
"(  c #464F57",
")  c #464F58",
"_  c #475059",
"`  c #49525B",
"'  c #4A535C",
"]  c #4B555F",
"[  c #4D5761",
"{  c #4F5963",
"}  c #505A64",
"|  c #515C67",
" . c #525C66",
".. c #525D68",
"X. c #535E69",
"o. c #545F69",
"O. c #545F6A",
"+. c #55606B",
"@. c #56616C",
"#. c #58636E",
"$. c #5A6570",
"%. c #5B6773",
"&. c #5C6874",
"*. c #5D6975",
"=. c #5E6A76",
"-. c #5F6B77",
";. c #830003",
":. c #840003",
">. c #860003",
",. c #860105",
"<. c #8F0104",
"1. c #84060C",
"2. c #89060A",
"3. c #8C0509",
"4. c #910003",
"5. c #960003",
"6. c #900205",
"7. c #930407",
"8. c #980003",
"9. c #9F0003",
"0. c #920508",
"q. c #90060B",
"w. c #9B080D",
"e. c #970D14",
"r. c #811219",
"t. c #981117",
"y. c #9C1117",
"u. c #9A1219",
"i. c #9B141A",
"p. c #9A151B",
"a. c #9B171D",
"s. c #A30003",
"d. c #A50003",
"f. c #A70003",
"g. c #AB0003",
"h. c #AC0003",
"j. c #AD0003",
"k. c #AE0003",
"l. c #AF0003",
"z. c #B90002",
"x. c #BC0002",
"c. c #BD0002",
"v. c #A1141B",
"b. c #9D1A21",
"n. c #A21E24",
"m. c #B22B31",
"M. c #B72D33",
"N. c #B93137",
"B. c #BE343A",
"V. c #C3373E",
"C. c #C3383E",
"Z. c #C4383E",
"A. c #BB3B41",
"S. c #C83B41",
"D. c #687582",
"F. c #6A7784",
"G. c #6B7885",
"H. c #6D7985",
"J. c #6E7B87",
"K. c #717B88",
"L. c #717D89",
"P. c #74808C",
"I. c #75818D",
"U. c #7C8792",
"Y. c #7E8994",
"T. c #7F8A95",
"R. c #808B96",
"E. c #818C97",
"W. c #828D98",
"Q. c #858F99",
"!. c #87919B",
"~. c #8A949E",
"^. c #8B959F",
"/. c #919AA3",
"(. c #97A0A9",
"). c None",
/* pixels */
").).).).).).).).).).).).).).).).).).).).).).).).).).).).).).).).",
").).).).).).).).).).).).).).).).).).).).).).).).).).).).).).).).",
").).).).).).).).).).).).).).).).).).).).).).).).).).).).).).).).",
").).).).).).).).a.p.e.i.b.t.).).).).).).).).).).).).).).).).).).",
").).).).).).u.A.y.v.q.n.2.3.6.4.v * ).).).).).).).).).).).).).).",
").).).).).7.M.w.0.1.D N M n b v + F.j _ K ).).).).).).).).).).).",
").).).).).<.,.Z C m r y p a u < i +.~.F G H ).).).).).).).).).).",
").).).).  . X o O J k ` < L.j [ O.O.K.      ).).).).).).).).).).",
").).    B.Z.Z.V.S.C.N.m.    H.x  .E.`   8.h z.E ).).).).).).).).",
").).).s.f.c.x.x.x.j.d.>.V   > F Y K e 9 L F u   ).).).).).).).).",
").).    g.:.B B ;.h.9.5.A   Q i { { ) /  .P   ).).).).).).).).).",
").).).k.g.3   $   l.S S T F - * W @.@.U U ).).).).).).).0 ).).).",
").).).).r.6 % & 2 r.E ~ d 1 t ' ] @.*.W ).).).).).).).7 ; 2 ).).",
").).).).).  U   R ).).).} } $.      ).).).).).).).).z (.X.q ).).",
").).).).).).).).).).).).      ] (.(.W ).).).).).).z (.E.j ).).).",
").).).).).).).).).).).).).; L (.l x (.E ).).).).z (.T.j ).).).).",
").).).).).).).).).).).).).).# P 0 4 z l W ).).z (.Y.j ).).).).).",
").).).).).).).).).).).).).).@ : H   u   H I x R U.j ).).).).).).",
").).).).).).).).).).).).).).).: ; c       Y U c g ).).).).).).).",
").).).).).).).).).).).).).).).).).j f   K Q.^.W.).).).).).).).).",
").).).).).).).).).).).).).).).).> D.X.#.L.x P g Q ).).).).).).).",
").).).).).).).).).).).).).).)., G.{ I I.x L j 5   ).).).).).).).",
").).).).).).).).).).).).).)., R.%.I /.Y L w e   ~ ).).).).).).).",
").).).).).).).).).).).).).: R.=.#.P U !.c f ).).).).).).).).).).",
").).).).).).).).).).).).(.P.&...g x U U ^.).).).).).).).).).).).",
").).).).).).).).).).R (.T T -.F x U Y : ).).).).).).).).).).).).",
").).).).).).).).K l (.L P +.U Y T Y : ).).).).).).).).).).).).).",
").).).).).).).).T t   H   x j Y = : ).).).).).).).).).).).).).).",
").).).).).).).E (.( T , J.(.s ).).).).).).).).).).).).).).).).).",
").).).).).).U (.o./ $ 8 Y (.x T ).).).).).).).).).).).).).).).).",
").).).).).x  .....z ! ^ |  .{ O.I ).).).).).).).).).).).).).).).",
").).).).).u u u u u u u u u u u u u ).).).).).).).).).).).).).)."
};
