/* XPM */
static char *result[] = {
/* columns rows colors chars-per-pixel */
"32 32 20 1 ",
"  c gray21",
". c #565656",
"X c #393939",
"o c #2C2B2B",
"O c #464646",
"+ c #3F3F3F",
"@ c #595757",
"# c #3C3C3C",
"$ c #494848",
"% c gray24",
"& c #484848",
"* c gray26",
"= c #3E3E3E",
"- c #444444",
"; c #3A3A3A",
": c #484747",
"> c #434343",
", c gray25",
"< c gray29",
"1 c gray22",
/* pixels */
"                                ",
"  .............. .............  ",
" .XoXXXXXXXXXXXO+OXXXXXXXXXXoX. ",
" .o@o##########O+O#########o@o. ",
" .Xo#$%%%%%%%%%O+O%%%%%%%%$#oX. ",
" .X##+$&&&&&&&&*&*&&&&&&&$+##X. ",
" .X#=+&------------------&+=#X. ",
" .X#=+$------------------$+=#X. ",
" .X#=+$------------------$+=#X. ",
" .X#=+$------------------$+=#X. ",
" .X#=+$------------------$+=#X. ",
" .X#=+$------------------$+=#X. ",
" .X#=+$------------------$+=#X. ",
" .X#=+$------------------$+=#X. ",
" .;%++&------------------:++%=. ",
" .OOO&>------------------*&OOO. ",
"  +++,&------------------<,+++  ",
" .OOO&>------------------*&OOO. ",
" .1#=+&------------------:+=#X. ",
" .1#=+$------------------$+=#X. ",
" .1#=+$------------------$+=#X. ",
" .1#=+$------------------$+=#X. ",
" .1#=+$------------------$+=#X. ",
" .1#=+$------------------$+=#X. ",
" .1#=+$------------------$+=#X. ",
" .1#=+&------------------&+=#X. ",
" .1##+$&&&&&&&&*&*&&&&&&&$+##X. ",
" .1o#$%%%%%%%%%O+O%%%%%%%%$#oX. ",
" .o@o##########O+O#########o@o. ",
" .XoXXXXXXXXXXXO+OXXXXXXXXXXoX. ",
"  .............. .............  ",
"                                "
};
